PathFileType	4	(X/Y/Z)	C:/Users/beibeiliu/ov580/test_trc\sequence.19_training_dense_left.trc
DataRate	CameraRate	NumFrames	NumMarkers	Units	OrigDataRate	OrigDataStartFrame	OrigNumFrames
120	120	14	19	mm	120	1	43
Frame#	Time	ThumbCMC			ThumbMCP			ThumbIP			ThumbTip			IndexMCP			IndexPIP			IndexTip			MiddleMCP			MiddlePIP			MiddleTip			RingMCP			RingPIP			RingTip			PinkyMCP			PinkyPIP			PinkyTip			BackHand1			BackHand2			BackHand3	
		X0	Y0	Z0	X1	Y1	Z1	X2	Y2	Z2	X3	Y3	Z3	X4	Y4	Z4	X5	Y5	Z5	X6	Y6	Z6	X7	Y7	Z7	X8	Y8	Z8	X9	Y9	Z9	X10	Y10	Z10	X11	Y11	Z11	X12	Y12	Z12	X13	Y13	Z13	X14	Y14	Z14	X15	Y15	Z15	X16	Y16	Z16	X17	Y17	Z17	X18	Y18	Z18	
0	0	-135.237	55.6752	151.642	-105.115	30.4585	148.684	-86.1219	11.6122	133.422	-91.6238	-12.9052	112.52	-111.754	46.4117	83.0408	-90.6084	44.5079	72.2191	-71.32	40.4477	51.7874	-120.435	26.2275	73.8479	-103.195	18.4883	56.2129	-85.971	9.90911	36.3609	-123.915	3.99795	79.1063	-109.043	-6.56298	67.9993	-89.5977	-18.5317	55.0341	-126.142	-17.4443	102.576	-105.196	-18.1843	119.536	-107.091	5.52424	142.367	-166.807	19.3717	106.944	-189.198	27.024	133.718	-165.934	51.9007	120.356	
1	0.00833333	-150.26	63.4932	147.999	-114.728	52.61	141.208	-98.9425	37.5557	123.982	-95.215	14.491	105.425	-131.818	61.495	77.6064	-111.478	64.8277	61.0071	-95.0713	65.3221	41.4569	-133.179	40.7847	68.4658	-118.961	38.6115	53.1615	-99.9597	34.0196	29.753	-132.963	13.9262	76.591	-113.701	13.4707	63.2485	-90.2995	7.11816	44.3623	-129.523	-1.00387	98.0155	-101.206	4.35939	114.85	-107.565	21.1282	138.29	-175.291	17.9389	111.247	-193.808	22.1207	133.786	-179.222	52.2714	120.937	
2	0.0166667	-170.179	67.6758	144.45	-135.764	69.1951	134.714	-111.603	60.9555	111.578	-106.678	41.731	99.5525	-156.385	71.6945	68.7156	-141.863	74.0131	53.5445	-129.836	81.8878	34.1287	-153.535	42.3819	65.5323	-137.909	46.3292	45.5585	-122.445	49.2405	23.0251	-144.673	25.6628	73.6401	-121.354	26.0889	54.2953	-101.886	25.34	37.7427	-131.717	8.74815	91.192	-105.832	22.7801	102.628	-113.846	39.5435	126.211	-180.55	12.9221	110.329	-195.768	14.2083	135.799	-195.585	43.5689	122.025	
3	0.025	-189.714	65.8888	132.606	-158.567	72.0723	121.04	-137.495	70.0634	100.607	-124.978	54.4117	87.7909	-182.987	58.3464	60.9883	-173.336	69.8113	40.4819	-161.338	69.6418	23.3127	-174.48	35.0037	61.0535	-159.892	38.524	35.846	-146.658	40.664	13.0846	-157.635	21.6394	66.2006	-138.452	24.368	47.6143	-124.326	29.3683	31.6134	-144.824	13.3482	86.1251	-120.879	33.6416	84.5024	-122.712	52.7616	110.13	-184.79	6.0194	107.901	-196.524	0.154408	136.096	-208.708	30.8509	117.259	
4	0.0333333	-207.63	46.269	129.132	-178.795	60.9339	107.806	-159.969	63.6617	87.6785	-143.52	46.6416	72.2615	-209.636	33.6414	57.3445	-201.438	40.3416	36.2468	-194.027	45.5236	13.4346	-194.15	13.3301	50.8915	-183.273	17.2782	27.3012	-174.675	17.49	6.40154	-169.546	1.0759	63.9233	-157.184	8.32364	39.0548	-141.149	13.711	19.6409	-151.94	-0.123687	79.5546	-140.025	24.01	72.0195	-140.425	48.8077	93.9074	-192.976	-12.1778	108.434	-204.287	-10.8537	135.476	-219.369	9.73974	116.751	
5	0.0416667	-220.828	30.319	120.062	-196.199	44.019	99.4798	-177.916	41.3056	75.034	-161.415	27.2745	61.5478	-229.719	8.10034	56.6211	-220.357	10.5918	29.2023	-218.309	13.641	8.95985	-209.6	-14.3474	52.0516	-205.837	-12.7406	27.9541	-196.291	-15.558	2.71708	-186.17	-21.6348	61.97	-174.902	-18.2806	35.869	-163.97	-14.3748	16.2198	-169.461	-18.3851	75.3234	-157.218	3.31147	63.7502	-157.312	30.4993	82.5933	-206.72	-26.7596	113.045	-210.421	-25.5334	140.239	-233.644	-6.05627	118.99	
6	0.05	-232.627	23.4138	117.2	-208.574	33.5378	91.2163	-193.394	27.3381	71.7027	-180.768	8.54768	57.0972	-245.478	-9.66962	53.2286	-245.14	-5.04105	33.2854	-240.778	-8.50303	8.59942	-230.904	-32.7116	53.8729	-231.004	-33.3598	31.7222	-226.528	-39.9571	1.56395	-211.364	-36.2467	62.9251	-200.847	-38.967	36.6734	-193.17	-37.0206	8.32873	-185.697	-35.9531	72.4568	-172.966	-10.1474	59.7413	-173.203	14.6879	76.1489	-221.048	-35.2824	114.592	-221.087	-34.1886	143.717	-244.915	-17.2387	123.338	
7	0.0583333	-234.048	24.6591	122.808	-211.234	29.481	92.5107	-200.518	19.3854	63.3228	-192.484	-1.74374	50.5107	-260.753	-5.32611	57.6242	-260.358	-1.16672	31.4056	-258.355	-6.68107	11.1037	-251.953	-30.7222	56.8857	-253.009	-34.4194	33.821	-255.502	-38.7558	1.25371	-232.229	-39.642	62.2953	-223.502	-46.2528	36.0543	-218.543	-45.7125	11.1071	-204.571	-42.8171	67.6689	-189.333	-22.5471	57.1142	-184.195	5.47849	77.1981	-232.544	-40.8081	116.106	-232.542	-35.2596	142.708	-256.413	-11.705	125.228	
8	0.0666667	-222.467	30.2102	122.93	-201.977	27.8482	92.6477	-196.891	16.5008	68.4504	-197.61	-6.89088	51.6534	-258.716	14.9885	62.6595	-257.866	18.3549	33.5503	-258.448	20.0799	9.13472	-258.25	-10.4805	61.189	-261.247	-15.9672	31.7112	-265.28	-17.0671	5.66855	-243.267	-28.8481	61.1209	-239.237	-33.9837	36.0124	-235.335	-30.9468	7.60233	-218.413	-39.7579	70.6392	-197.33	-23.9055	56.1499	-182.81	-0.88688	77.4252	-242.771	-27.954	114.094	-238.128	-26.9536	145.479	-252.301	2.90532	127.969	
9	0.075	-201.932	34.4434	127.774	-181.218	29.8526	93.7077	-180.349	21.5158	67.9718	-192.898	0.56762	54.0885	-238.274	44.7574	63.9817	-236.432	45.6101	40.7271	-235.852	48.0658	14.3223	-249.648	22.6712	59.0344	-252.64	23.9765	34.0895	-256.005	23.5552	7.12121	-244.057	1.48344	58.569	-242.715	-6.81194	35.5583	-236.739	-4.25116	7.64739	-227.273	-18.3849	69.1396	-198.532	-16.0457	54.5537	-180.438	-4.02189	76.269	-245.098	-8.73123	112.81	-242.063	-9.09029	139.722	-240.123	25.4889	129.948	
10	0.0833333	-175.341	37.4766	127.464	-159.727	23.3803	97.4842	-162.52	15.1472	69.3307	-181.66	3.28755	51.2746	-200.822	61.1183	63.3125	-194.022	65.6982	41.0588	-192.234	65.6793	13.0979	-220.77	48.3502	56.3323	-220.153	50.9849	34.0321	-224.158	51.3412	6.04348	-227.752	21.9737	58.1032	-226.081	21.5426	33.3282	-219.157	22.7305	4.6266	-221.329	2.4802	66.6948	-195.539	-7.68068	51.1139	-174.35	-7.92381	73.868	-234	18.0236	110.861	-231.893	15.4581	136.358	-216.484	44.2018	128.217	
11	0.0916667	-153.628	23.0236	132.587	-135.846	5.31557	102.476	-140.618	-2.06563	74.0062	-163.744	-6.71827	58.8298	-159.123	54.0838	63.487	-149.918	53.8219	40.1258	-147.958	53.2588	18.8122	-184.749	48.575	58.6201	-184.168	50.8606	31.1926	-182.707	54.33	1.91977	-200.015	28.5638	59.4077	-195.255	27.988	33.6952	-191.641	23.0227	7.40964	-201.086	8.96313	62.0905	-185.19	-8.34477	50.6542	-163.856	-23.7524	73.6669	-212.053	30.0286	107.726	-214.836	25.6379	136.772	-182.659	46.4556	126.06	
12	0.1	-135.421	11.3175	134.939	-124.772	-12.0604	112.538	-123.05	-23.2113	84.347	-143.949	-25.3067	64.2081	-128.655	34.125	66.7017	-117.271	30.4602	46.7847	-113.831	27.096	25.81	-153.48	33.4005	59.0431	-151.07	31.6891	32.0427	-148.902	31.3687	7.88492	-176.078	16.7794	59.9675	-166.323	13.1539	33.9528	-161.892	4.80084	10.1486	-186.787	-1.13998	68.9966	-172.403	-19.5986	52.3761	-149.196	-41.2474	67.9105	-184.94	24.488	108.233	-193.041	24.3249	140.261	-161.442	36.0183	129.851	
13	0.108333	-120.984	-3.36244	150.108	-107.64	-29.0772	125.498	-109.341	-40.8169	98.2687	-130.226	-45.1065	78.9213	-112.717	8.11045	77.3729	-99.135	1.33402	59.1355	-89.2931	-6.32857	34.2487	-132.601	7.5176	63.9117	-124.89	1.38414	41.439	-119.676	-3.06838	18.2379	-153.39	-4.94835	66.1162	-148.692	-13.632	46.3017	-140.469	-24.3508	22.8019	-168.44	-16.7262	74.7561	-159.797	-39.2175	57.7016	-141.181	-60.5081	59.0528	-168.778	9.81986	113.358	-177.792	17.27	141.45	-145.844	25.6265	136.2	
